<svg width="14" height="14" viewBox="0 0 14 14" fill="none" xmlns="http://www.w3.org/2000/svg">
<path d="M12.25 7C12.25 8.03835 11.9421 9.05339 11.3652 9.91674C10.7883 10.7801 9.9684 11.453 9.00909 11.8504C8.04978 12.2477 6.99418 12.3517 5.97578 12.1491C4.95738 11.9466 4.02191 11.4465 3.28769 10.7123C2.55346 9.97809 2.05345 9.04262 1.85088 8.02422C1.6483 7.00582 1.75227 5.95022 2.14963 4.99091C2.54699 4.0316 3.2199 3.21166 4.08326 2.63478C4.94661 2.05791 5.96165 1.75 7 1.75C8.46769 1.75552 9.87643 2.32821 10.9317 3.34833L12.25 4.66667" stroke="#2291FF" stroke-linecap="round" stroke-linejoin="round"/>
<path d="M12.25 1.75V4.66667H9.33333" stroke="#2291FF" stroke-width="1.33333" stroke-linecap="round" stroke-linejoin="round"/>
</svg>
